<svg version="1.1" id="Layer_1" xmlns="http://www.w3.org/2000/svg" xmlns:xlink="http://www.w3.org/1999/xlink" x="0px" y="0px"
	 width="100%" viewBox="0 0 496 496" enable-background="new 0 0 496 496" xml:space="preserve">
<path fill="#000000" opacity="1.000000" stroke="none" 
	d="
M254.311768,130.622040 
	C259.315369,132.860138 263.510345,136.023560 269.073212,135.835770 
	C273.440765,135.688339 276.001862,133.986389 276.650238,129.606613 
	C276.885284,128.018982 276.667603,125.909119 279.087311,125.989319 
	C281.945282,126.084045 281.273468,128.519211 281.278992,130.161926 
	C281.340149,148.321625 281.331421,166.481644 281.289581,184.641464 
	C281.286041,186.171326 281.828613,188.355942 279.258270,188.406586 
	C276.528229,188.460358 276.821960,186.219910 276.702332,184.432938 
	C275.912445,172.635956 273.098480,161.522781 266.569550,151.427765 
	C255.315765,134.027206 233.182327,125.570328 213.345840,131.368515 
	C203.990738,134.102997 198.055923,141.605942 197.152679,151.354752 
	C195.561569,168.527802 203.762314,181.115387 216.004745,191.709915 
	C228.135574,202.207809 242.126434,210.116043 255.194443,219.312256 
	C266.393066,227.192917 277.376160,235.399719 284.501953,247.489227 
	C293.905273,263.442780 294.425476,280.046692 286.832672,296.717194 
	C280.381714,310.880646 267.892853,317.250488 253.469284,320.279602 
	C233.302704,324.514862 213.786575,322.503693 195.162613,313.303223 
	C189.987366,310.746613 184.509628,309.505615 178.700195,310.333282 
	C175.154175,310.838501 172.338394,312.367371 171.376358,316.111908 
	C170.976059,317.669922 170.573975,319.168610 168.575928,318.874054 
	C166.512009,318.569794 166.711639,316.779541 166.704590,315.333832 
	C166.659882,306.170807 166.670349,297.007507 166.666885,287.844299 
	C166.661469,273.516266 166.598618,259.187683 166.725235,244.860809 
	C166.743057,242.846207 165.364273,239.265091 168.743118,239.217300 
	C172.490860,239.164276 171.147903,242.942734 171.224655,245.124908 
	C171.793854,261.312073 174.769135,276.776733 183.443756,290.826569 
	C197.634430,313.810455 226.864197,319.446533 248.103470,310.791168 
	C262.559570,304.899994 268.507721,287.396606 261.740692,271.880737 
	C257.199615,261.468597 249.361542,253.716751 240.524200,247.087036 
	C227.206726,237.096390 213.441193,227.705338 200.011017,217.861725 
	C191.665710,211.745056 183.953400,204.893463 177.503784,196.702728 
	C157.750229,171.616592 165.959183,139.781693 195.599625,127.795631 
	C215.338333,119.813652 234.923264,120.574936 254.311768,130.622040 
z"/>
<path fill="#000000" opacity="1.000000" stroke="none" 
	d="
M313.583801,133.207474 
	C333.795410,138.039261 346.116943,151.815308 347.290466,170.598633 
	C348.715179,193.402603 339.476135,208.616959 319.629761,216.264771 
	C307.652313,220.880280 295.152985,222.174240 282.453308,222.341843 
	C279.556976,222.380081 277.344696,221.387604 275.559723,218.238632 
	C279.526276,217.602600 283.205658,217.174866 286.812927,216.408112 
	C311.910553,211.073380 319.672394,193.843613 318.421753,171.697479 
	C317.550995,156.277847 311.471985,143.695053 296.387299,137.083954 
	C293.977600,136.027863 293.361267,133.986557 293.996948,131.702240 
	C294.681244,129.243195 296.764893,129.791611 298.560089,130.140152 
	C303.445099,131.088623 308.319794,132.090439 313.583801,133.207474 
z"/>
<path fill="#000000" opacity="1.000000" stroke="none" 
	d="
M299.407074,235.424988 
	C306.572784,232.113739 306.525604,232.146179 310.873291,238.470581 
	C324.462952,258.238922 338.078583,277.989502 351.711243,297.728241 
	C357.532196,306.156433 364.711731,312.470825 375.668915,312.730804 
	C377.095520,312.764648 378.382996,313.093903 378.504883,314.844666 
	C378.602631,316.249084 377.804657,317.191803 376.467804,317.151276 
	C362.927216,316.741119 349.112457,319.532379 336.023590,313.739288 
	C331.072540,311.547974 326.889435,308.277161 323.051147,304.537781 
	C321.502380,303.028931 320.024109,301.430573 318.654907,299.757416 
	C310.999695,290.402618 303.099701,281.450531 303.864929,267.832184 
	C304.428589,257.801483 300.092407,248.695389 294.857758,240.201309 
	C294.511169,239.638916 294.218414,239.033813 293.981873,238.417389 
	C293.873810,238.135788 293.963501,237.778290 293.963501,237.151215 
	C295.634338,236.625687 297.350800,236.085815 299.407074,235.424988 
z"/>
<path fill="#000000" opacity="1.000000" stroke="none" 
	d="
M239.090759,262.012329 
	C242.282471,264.416229 243.395599,267.262726 243.314865,270.918030 
	C243.138275,278.913544 243.095322,286.919891 243.319504,294.912842 
	C243.423782,298.630981 241.921249,300.389984 238.452347,301.158081 
	C231.480576,302.701752 224.540863,302.159271 217.619156,301.019073 
	C215.622421,300.690125 213.742783,299.777924 213.743134,297.190704 
	C213.745499,279.721527 213.744370,262.252350 213.744370,243.480835 
	C223.514511,248.868973 231.093796,255.421509 239.090759,262.012329 
z"/>
<path fill="#000000" opacity="1.000000" stroke="none" 
	d="
M219.806549,178.164886 
	C214.172440,173.159760 213.012039,167.067566 213.640823,160.251205 
	C213.945251,156.950974 214.003265,153.561340 213.611847,150.279099 
	C213.016342,145.285522 215.440033,143.272598 219.926529,142.793640 
	C226.615326,142.079544 233.183914,142.406998 239.578003,144.784454 
	C241.852890,145.630310 243.237747,146.864105 243.229721,149.458984 
	C243.185486,163.771194 243.199493,178.083588 243.153732,192.395782 
	C243.151306,193.154617 242.786469,193.912308 242.410339,195.366409 
	C233.891556,190.574112 226.809753,184.720795 219.806549,178.164886 
z"/>
<path fill="#000000" opacity="1.000000" stroke="none" 
	d="
M253.306183,353.731995 
	C252.263718,355.739624 252.273376,357.946655 250.426926,359.293579 
	C247.320663,357.730530 248.262054,353.841278 245.909256,351.620331 
	C243.387756,353.369049 245.431900,357.577576 241.333191,359.391083 
	C241.055435,353.184326 243.363312,348.091370 244.380295,341.765320 
	C247.886856,345.341248 247.546402,349.709442 250.424438,352.625610 
	C251.947418,349.172791 253.378922,345.927368 255.430893,341.275238 
	C257.558197,348.005096 258.699707,353.283295 259.409363,359.370514 
	C255.037292,357.754425 256.516663,353.931244 255.072235,351.728088 
	C253.872559,351.825684 253.875534,352.838470 253.306183,353.731995 
z"/>
<path fill="#000000" opacity="1.000000" stroke="none" 
	d="
M304.556458,355.474030 
	C302.108490,355.806763 302.169037,359.117126 298.601013,358.652985 
	C300.834381,353.062164 302.961731,347.736755 305.632477,341.050995 
	C309.349060,347.469818 311.413300,352.887268 313.373901,359.279663 
	C309.514038,358.401062 308.568787,353.944244 304.556458,355.474030 
z"/>
<path fill="#000000" opacity="1.000000" stroke="none" 
	d="
M208.299454,356.360779 
	C210.251984,351.746918 212.077255,347.490631 213.931793,343.247162 
	C214.050949,342.974518 214.396194,342.800629 215.426193,341.857361 
	C218.102844,347.409180 220.351654,352.743256 221.977859,358.279846 
	C220.112656,359.263153 219.658493,358.199005 219.053543,357.467682 
	C216.502594,354.383881 213.889023,354.400970 211.151428,357.244537 
	C209.964615,358.477325 208.420181,361.120056 208.299454,356.360779 
z"/>
<path fill="#000000" opacity="1.000000" stroke="none" 
	d="
M188.861404,348.608978 
	C188.322281,344.736298 189.809052,342.742798 193.350464,342.613525 
	C196.072250,342.514160 198.998779,342.349670 199.462570,346.349731 
	C196.769104,347.384796 194.037231,342.994537 191.748734,346.841919 
	C192.444183,349.257782 194.658310,349.231903 196.448929,349.873779 
	C198.966949,350.776398 201.012009,352.190155 200.628220,355.241058 
	C200.182312,358.785736 197.457535,359.764191 194.468292,359.773346 
	C191.672195,359.781891 188.899963,359.242401 188.498947,355.509583 
	C190.984879,354.323334 192.165939,357.175629 194.215622,356.816772 
	C195.536270,356.585571 197.024704,356.700470 197.323059,354.994263 
	C197.583221,353.506378 196.328308,352.975006 195.243103,352.621155 
	C192.885803,351.852417 190.344315,351.468353 188.861404,348.608978 
z"/>
<path fill="#000000" opacity="1.000000" stroke="none" 
	d="
M281.622406,358.598358 
	C280.017914,354.763672 280.841583,350.946991 280.708496,347.182587 
	C280.654694,345.660278 280.085144,343.508240 282.270355,342.999817 
	C284.833221,342.403442 287.562103,342.137177 289.803741,344.106903 
	C291.641022,345.721283 292.394501,348.264526 290.991455,349.897186 
	C288.258484,353.077332 288.831299,355.713135 291.949921,358.664398 
	C287.377380,359.870544 287.115967,355.286285 284.442657,354.863922 
	C282.574127,355.473145 284.013031,358.195618 281.622406,358.598358 
M283.346558,348.404388 
	C284.029663,351.497528 285.921356,350.996094 287.729919,349.670746 
	C288.939850,348.784027 289.119904,347.188080 287.850433,346.255890 
	C285.916382,344.835602 284.123199,344.952240 283.346558,348.404388 
z"/>
<path fill="#000000" opacity="1.000000" stroke="none" 
	d="
M328.871521,349.796753 
	C330.189484,350.222076 331.318176,351.627472 330.227783,351.647125 
	C325.271881,351.736511 323.868103,354.914154 323.344269,359.262268 
	C320.862061,356.650940 319.762787,345.222656 321.811737,343.729004 
	C324.645477,341.663177 327.926788,342.481110 331.052795,343.327911 
	C330.969604,345.406616 329.598541,345.173706 328.512817,345.299164 
	C326.749512,345.502960 324.395966,345.119843 324.540680,347.827454 
	C324.671783,350.281189 326.981171,349.435760 328.871521,349.796753 
z"/>
<path fill="#000000" opacity="1.000000" stroke="none" 
	d="
M229.939697,350.997681 
	C230.261703,348.076233 229.040375,345.293152 232.219650,342.302521 
	C233.967331,348.314972 233.141464,353.462250 232.816010,359.868744 
	C229.033035,356.882874 230.273758,353.947418 229.939697,350.997681 
z"/>
<path fill="#000000" opacity="1.000000" stroke="none" 
	d="
M342.336609,353.797791 
	C342.169067,355.784424 342.741638,357.542175 340.340088,359.300781 
	C339.366119,353.507690 339.211548,348.482269 340.952209,343.439423 
	C343.004181,346.570465 342.038208,350.030823 342.336609,353.797791 
z"/>
</svg>